<svg id="图层_1" data-name="图层 1" xmlns="http://www.w3.org/2000/svg" viewBox="0 0 85.04 85.04"><defs><style>.cls-1{fill:#00a0e9;}</style></defs><circle class="cls-1" cx="42.52" cy="42.52" r="15.87"/><path class="cls-1" d="M82.2,42.51c0-.42,0-.85,0-1.27,0-.12,0-.24,0-.36,0-.34,0-.68-.06-1,0-.09,0-.18,0-.27q0-.63-.12-1.26a2.11,2.11,0,0,0,0-.25c0-.35-.09-.69-.13-1,0-.1,0-.2,0-.3-.12-.84-.27-1.68-.44-2.5L81.28,34c-.08-.37-.17-.74-.26-1.11l0-.13c-.1-.42-.22-.84-.34-1.26l0-.09c-.11-.39-.23-.77-.35-1.16a.88.88,0,0,1,0-.15c-.28-.83-.58-1.64-.9-2.45l0-.09a39.43,39.43,0,0,0-1.68-3.61h0c-.42-.79-.87-1.56-1.34-2.32h0a39.68,39.68,0,1,0-8,51.17,51.48,51.48,0,0,1-6-10.69A27.78,27.78,0,1,1,70.3,42.52a39.52,39.52,0,0,0,6,20.91,39.49,39.49,0,0,0,6-20.91h0Z"/></svg>